<?xml version="1.0" encoding="UTF-8" standalone="no"?>
<svg width="98px" height="18px" viewBox="0 0 98 18" version="1.1" xmlns="http://www.w3.org/2000/svg" xmlns:xlink="http://www.w3.org/1999/xlink">
    <!-- Generator: Sketch 44 (41411) - http://www.bohemiancoding.com/sketch -->
    <title>Group 2</title>
    <desc>Created with Sketch.</desc>
    <defs></defs>
    <g id="Page-1" stroke="none" stroke-width="1" fill="none" fill-rule="evenodd">
        <g id="arctic-wordmark" transform="translate(-7.000000, 0.000000)" fill-rule="nonzero" fill="#FFFFFF">
            <g id="Group" transform="translate(7.000000, 0.000000)">
                <g id="Group-2">
                    <path d="M5.6,10.6 L4.8,13 C4.5,13.9 4.2,14.7 4,15.2 C3.8,15.7 3.7,16.1 3.8,16.4 C3.8,16.7 4,16.9 4.3,17 C4.6,17.1 5,17.2 5.7,17.2 L6.2,17.3 L6.3,17.5 L0.7,17.5 L0.8,17.3 L1.3,17.2 C1.7,17.1 2.1,17.1 2.4,17 C2.7,16.9 2.9,16.7 3.1,16.4 C3.3,16.1 3.5,15.7 3.8,15.1 C4,14.5 4.3,13.8 4.7,12.8 L7.7,4.5 L7.4,3.7 C8.1,3.5 8.7,3.2 9,2.7 C9.4,2.2 9.7,1.6 10.1,0.8 L10.8,0.8 L15.4,13.7 C15.7,14.4 15.9,15 16.1,15.4 C16.3,15.8 16.5,16.2 16.7,16.4 C16.9,16.6 17.1,16.8 17.3,16.9 C17.5,17 17.7,17.1 18,17.1 L18.7,17.2 L18.7,17.4 L9.9,17.4 L10,17.2 L10.6,17.1 C11.2,17 11.6,16.9 11.6,16.6 C11.7,16.3 11.6,15.8 11.3,15 L9.7,10.5 L5.6,10.5 L5.6,10.6 Z M9.6,10.3 L7.7,4.9 L7.7,4.9 L5.7,10.3 L9.6,10.3 L9.6,10.3 Z" id="Shape"></path>
                    <path d="M19.1,17.2 L20.1,17.1 C20.5,17 20.9,17 21,16.9 C21.2,16.8 21.3,16.7 21.3,16.7 L21.3,1.9 C21.3,1.8 21.3,1.8 21.3,1.8 C21.3,1.8 21.2,1.7 21.1,1.7 C21,1.7 20.9,1.6 20.7,1.6 C20.5,1.6 20.3,1.5 19.9,1.5 L19.2,1.4 L19,1.3 L27.4,1.2 C29.7,1.2 31.4,1.5 32.6,2.1 C33.8,2.7 34.3,3.7 34.3,5.1 C34.3,6.1 33.9,6.9 33.2,7.6 C32.5,8.3 31.5,8.8 30.3,9 L33.4,14.1 C33.8,14.7 34.1,15.2 34.3,15.5 C34.5,15.9 34.8,16.2 35,16.4 C35.2,16.6 35.4,16.8 35.7,16.9 C35.9,17 36.2,17.1 36.5,17.1 L36.7,17.1 L36.8,17.3 L30.5,17.3 L30.3,16.8 L26.4,9.2 C26.2,9.2 26,9.1 25.8,9.1 C25.6,9.1 25.4,9 25.3,8.9 L25.3,16.6 C25.3,16.7 25.3,16.7 25.3,16.7 C25.3,16.7 25.4,16.8 25.5,16.8 C25.6,16.8 25.7,16.9 25.9,16.9 C26.1,16.9 26.3,17 26.7,17 L27.6,17.1 L27.7,17.3 L19,17.3 L19.1,17.2 Z M25.9,8.8 C27.2,8.8 28.2,8.5 28.9,7.9 C29.6,7.3 30,6.4 30,5.2 C30,4.1 29.7,3.3 29,2.6 C28.3,2 27.4,1.7 26.2,1.6 L25.4,1.6 L25.4,8.8 C25.5,8.8 25.5,8.8 25.6,8.8 C25.7,8.8 25.8,8.8 25.9,8.8 Z" id="Shape"></path>
                    <path d="M46.5,17.6 C45,17.6 43.7,17.4 42.5,16.9 C41.3,16.5 40.3,15.9 39.5,15.1 C38.7,14.3 38.1,13.5 37.6,12.5 C37.2,11.5 37,10.5 37,9.4 C37,8.3 37.2,7.2 37.6,6.2 C38,5.2 38.6,4.3 39.4,3.5 C40.2,2.7 41.2,2.1 42.5,1.6 C43.7,1.1 45.1,0.9 46.7,0.9 C47.5,0.9 48.2,1 48.9,1.2 C49.6,1.4 50.1,1.6 50.6,1.8 L52.4,1.4 L52.6,6.7 L52.4,6.7 L49.6,1.9 C49.4,1.8 49,1.6 48.5,1.5 C48,1.4 47.4,1.3 46.7,1.3 C45.9,1.3 45.1,1.5 44.5,1.9 C43.8,2.3 43.3,2.8 42.9,3.6 C42.5,4.3 42.1,5.2 41.9,6.2 C41.7,7.2 41.5,8.3 41.5,9.5 C41.5,10.7 41.6,11.8 41.9,12.8 C42.2,13.8 42.5,14.6 43,15.3 C43.5,16 44,16.5 44.6,16.9 C45.2,17.3 45.9,17.4 46.6,17.4 C48,17.4 49.1,17.1 50,16.4 C50.9,15.7 51.6,14.8 52.2,13.6 L53.1,11.6 L53.3,11.6 L52.5,16.6 L51.7,16.7 C51.5,16.8 51.2,16.9 50.8,17 C50.4,17.1 50,17.2 49.5,17.3 C49,17.4 48.6,17.5 48.1,17.5 C47.4,17.6 47,17.6 46.5,17.6 Z" id="Shape"></path>
                    <path d="M58.1,17.2 L59.1,17.1 C59.5,17.1 59.8,17 60,16.9 C60.2,16.8 60.3,16.7 60.3,16.6 L60.3,1.5 L59.7,1.5 C59,1.6 58.5,1.7 57.9,2.1 C57.4,2.4 56.9,2.8 56.4,3.2 C56,3.6 55.6,4.1 55.3,4.6 C55,5.1 54.8,5.5 54.6,5.8 L54.4,6.2 L54.2,6.2 L54.8,1.3 L70,1.3 L70.3,6.2 L70.1,6.2 L70,5.8 C69.8,5.5 69.6,5.1 69.3,4.6 C69,4.1 68.6,3.6 68.2,3.2 C67.8,2.7 67.3,2.4 66.8,2 C66.3,1.7 65.7,1.5 65.1,1.5 L64.5,1.5 L64.5,16.7 C64.5,16.8 64.6,16.9 64.7,16.9 C64.9,16.9 65.3,17 65.9,17.1 L66.6,17.2 L66.7,17.4 L58,17.4 L58.1,17.2 Z" id="Shape"></path>
                    <path d="M71.9,17.2 L72.9,17.1 C73.3,17.1 73.6,17 73.8,16.9 C74,16.8 74.1,16.7 74.1,16.6 L74.1,1.9 C74.1,1.8 74.1,1.8 74,1.8 C74,1.8 73.9,1.7 73.8,1.7 C73.7,1.7 73.6,1.6 73.4,1.6 C73.2,1.6 73,1.5 72.6,1.5 L71.9,1.4 L71.8,1.2 L80.5,1.2 L80.4,1.4 L79.4,1.5 C79,1.5 78.7,1.6 78.5,1.7 C78.3,1.8 78.2,1.9 78.2,2 L78.2,16.7 C78.2,16.8 78.3,16.9 78.5,16.9 C78.7,16.9 79.1,17 79.7,17.1 L80.4,17.2 L80.5,17.4 L71.9,17.4 L71.9,17.2 Z" id="Shape"></path>
                    <path d="M91.2,17.6 C89.7,17.6 88.4,17.4 87.2,16.9 C86,16.5 85,15.9 84.2,15.1 C83.4,14.3 82.8,13.5 82.3,12.5 C81.9,11.5 81.7,10.5 81.7,9.4 C81.7,8.3 81.9,7.2 82.3,6.2 C82.7,5.2 83.3,4.3 84.1,3.5 C84.9,2.7 85.9,2.1 87.2,1.6 C88.4,1.1 89.8,0.9 91.4,0.9 C92.2,0.9 92.9,1 93.6,1.2 C94.3,1.4 94.8,1.6 95.3,1.8 L97.1,1.4 L97.3,6.7 L97.1,6.7 L94.3,1.9 C94.1,1.8 93.7,1.6 93.2,1.5 C92.7,1.4 92.1,1.3 91.4,1.3 C90.6,1.3 89.8,1.5 89.2,1.9 C88.5,2.3 88,2.8 87.6,3.6 C87.2,4.3 86.8,5.2 86.6,6.2 C86.4,7.2 86.2,8.3 86.2,9.5 C86.2,10.7 86.3,11.8 86.6,12.8 C86.9,13.8 87.2,14.6 87.7,15.3 C88.2,16 88.7,16.5 89.3,16.9 C89.9,17.3 90.6,17.4 91.3,17.4 C92.7,17.4 93.8,17.1 94.7,16.4 C95.6,15.7 96.3,14.8 96.9,13.6 L97.8,11.6 L98,11.6 L97.2,16.6 L96.4,16.7 C96.2,16.8 95.9,16.9 95.5,17 C95.1,17.1 94.7,17.2 94.2,17.3 C93.7,17.4 93.3,17.5 92.8,17.5 C92.1,17.6 91.6,17.6 91.2,17.6 Z" id="Shape"></path>
                </g>
            </g>
        </g>
    </g>
</svg>