<?xml version="1.0" encoding="UTF-8" standalone="no"?>
<svg width="69px" height="18px" viewBox="0 0 69 18" version="1.1" xmlns="http://www.w3.org/2000/svg" xmlns:xlink="http://www.w3.org/1999/xlink">
    <!-- Generator: Sketch 44 (41411) - http://www.bohemiancoding.com/sketch -->
    <title>Group 3</title>
    <desc>Created with Sketch.</desc>
    <defs></defs>
    <g id="Page-1" stroke="none" stroke-width="1" fill="none" fill-rule="evenodd">
        <g id="arctic-wordmark" transform="translate(-108.000000, 0.000000)" fill-rule="nonzero" fill="#FFFFFF">
            <g id="Group" transform="translate(7.000000, 0.000000)">
                <g id="Group-3" transform="translate(101.000000, 0.000000)">
                    <path d="M3.8,4.6 C3.5,4 3.3,3.4 3.1,3 C2.9,2.6 2.7,2.3 2.5,2.1 C2.3,1.9 2.1,1.7 1.9,1.6 C1.7,1.5 1.5,1.5 1.2,1.4 L0.7,1.3 L0.6,1.1 L9.1,1.1 L9,1.3 L8.2,1.3 C7.8,1.3 7.6,1.4 7.4,1.4 C7.2,1.5 7.1,1.5 7.1,1.6 C7,1.7 7,1.8 7.1,1.9 C7.2,2 7.2,2.2 7.3,2.4 L11.3,12.1 L11.4,12.1 L14,5.4 L13.6,4.3 C13.4,3.7 13.2,3.3 13,2.9 C12.8,2.5 12.7,2.2 12.5,2 C12.3,1.8 12.1,1.6 12,1.5 C11.8,1.4 11.6,1.3 11.4,1.3 L10.7,1.2 L10.6,1 L19.5,1 L19.4,1.2 L18.6,1.2 C17.9,1.2 17.5,1.3 17.4,1.5 C17.2,1.7 17.3,2 17.5,2.6 L20.8,11.8 L20.9,11.8 L23.2,5.5 C23.5,4.7 23.8,4 23.9,3.5 C24,3 24.2,2.6 24.1,2.2 C24.1,1.9 23.9,1.7 23.6,1.5 C23.3,1.4 22.8,1.2 22.1,1.2 L21.6,1.1 L21.5,0.9 L27.1,0.9 L27,1.1 L26.6,1.2 C26.1,1.3 25.7,1.3 25.4,1.5 C25.1,1.7 24.9,1.8 24.7,2.1 C24.5,2.4 24.3,2.8 24.1,3.3 C23.9,3.8 23.6,4.5 23.3,5.4 L18.8,17.4 L18.4,17.4 L14.2,6 L14.2,6 L9.6,17.8 L9.2,17.8 L3.8,4.6 Z" id="Shape"></path>
                    <path d="M26.9,17.2 L27.9,17.1 C28.3,17.1 28.6,17 28.8,16.9 C29,16.8 29.1,16.7 29.1,16.6 L29.1,1.9 C29.1,1.8 29.1,1.8 29,1.8 C29,1.8 28.9,1.7 28.8,1.7 C28.7,1.7 28.6,1.6 28.4,1.6 C28.2,1.6 28,1.5 27.6,1.5 L26.9,1.4 L26.8,1.2 L35.5,1.2 L35.4,1.4 L34.4,1.5 C34,1.5 33.7,1.6 33.5,1.7 C33.3,1.8 33.2,1.9 33.2,2 L33.2,16.7 C33.2,16.8 33.3,16.9 33.5,16.9 C33.7,16.9 34.1,17 34.7,17.1 L35.4,17.2 L35.5,17.4 L26.9,17.4 L26.9,17.2 Z" id="Shape"></path>
                    <path d="M36.5,17.2 L37.5,17.1 C37.9,17 38.3,17 38.4,16.9 C38.5,16.8 38.7,16.8 38.7,16.7 L38.7,1.9 C38.7,1.8 38.7,1.8 38.7,1.8 C38.7,1.8 38.6,1.7 38.5,1.7 C38.4,1.7 38.3,1.6 38.1,1.6 C37.9,1.6 37.7,1.5 37.3,1.5 L36.6,1.4 L36.5,1.2 L45.4,1.2 L45.3,1.4 L44.1,1.5 C43.8,1.5 43.5,1.6 43.3,1.7 C43.1,1.8 43,1.9 43,2 L43,17 L44.3,17.2 C44.8,17.2 45.4,17.1 45.9,16.9 C46.4,16.7 47,16.4 47.5,15.9 C48,15.5 48.6,14.9 49.1,14.1 C49.6,13.4 50.1,12.5 50.7,11.4 L50.9,11.1 L51.1,11.1 L50.3,17.4 L36.8,17.4 L36.5,17.2 Z" id="Shape"></path>
                    <path d="M51.8,17.2 L52.8,17.1 C53.2,17 53.6,17 53.7,16.9 C53.8,16.8 54,16.8 54,16.7 L54,1.9 C54,1.8 53.9,1.8 53.7,1.7 C53.5,1.7 53.1,1.6 52.5,1.5 L51.8,1.4 L51.7,1.2 L56.1,1.2 C56.6,1.2 57.2,1.2 57.7,1.2 C58.2,1.2 58.7,1.2 59.1,1.2 C59.5,1.2 59.8,1.2 60,1.2 C60.2,1.2 60.3,1.2 60.2,1.2 C63.1,1.2 65.3,1.9 66.7,3.2 C68.1,4.5 68.9,6.5 68.9,9.2 C68.9,10.3 68.7,11.3 68.2,12.3 C67.7,13.3 67.1,14.1 66.3,14.9 C65.5,15.6 64.5,16.2 63.5,16.6 C62.4,17 61.3,17.2 60.1,17.2 L51.7,17.2 L51.8,17.2 Z M61.8,16.5 C62.4,16.1 62.9,15.6 63.3,14.9 C63.7,14.2 64,13.5 64.2,12.6 C64.4,11.7 64.5,10.8 64.5,9.8 C64.5,4.4 62.8,1.7 59.4,1.7 L58.1,1.7 L58.1,16.8 L59.8,17.2 C60.6,17.1 61.2,16.9 61.8,16.5 Z" id="Shape"></path>
                </g>
            </g>
        </g>
    </g>
</svg>